<svg width="99" height="26" viewBox="0 0 99 26" fill="none" xmlns="http://www.w3.org/2000/svg">
<path fill-rule="evenodd" clip-rule="evenodd" d="M4.72035 4.01662L0.791782 6.26151C0.302164 6.5413 0 7.06198 0 7.6259V18.3735C0 18.9374 0.302164 19.4581 0.791782 19.7378L4.72035 21.9827C5.20346 22.2588 5.79654 22.2588 6.27965 21.9827L10.9995 19.2857L4.14857 15.3709C2.31428 14.3227 2.31428 11.6778 4.14858 10.6296L11 6.71454V6.71458L17.8514 10.6297C19.6857 11.6779 19.6857 14.3227 17.8514 15.3709L11.0005 19.2857L15.7204 21.9828C16.2035 22.2588 16.7965 22.2588 17.2796 21.9828L21.2082 19.7379C21.6978 19.4581 22 18.9374 22 18.3735V7.62594C22 7.06203 21.6978 6.54134 21.2082 6.26156L17.2796 4.01666C16.7965 3.7406 16.2035 3.7406 15.7204 4.01666L11 6.71401V6.71396L6.27965 4.01662C5.79654 3.74055 5.20346 3.74056 4.72035 4.01662ZM14.9294 12.9995C14.9294 12.1316 15.633 11.4281 16.5008 11.4281C17.3687 11.4281 18.0723 12.1316 18.0723 12.9995C18.0723 13.8674 17.3687 14.5709 16.5008 14.5709C15.633 14.5709 14.9294 13.8674 14.9294 12.9995ZM5.50083 11.4281C4.63296 11.4281 3.9294 12.1316 3.9294 12.9995C3.9294 13.8674 4.63296 14.5709 5.50083 14.5709C6.36871 14.5709 7.07226 13.8674 7.07226 12.9995C7.07226 12.1316 6.36871 11.4281 5.50083 11.4281Z" fill="#EBEBEB" style="fill:#EBEBEB;fill:color(display-p3 0.9216 0.9216 0.9216);fill-opacity:1;"/>
<path d="M31.38 20V6H34.6L38.88 14.74L43.12 6H46.34V20H43.64V10.6L39.94 18.04H37.8L34.08 10.6V20H31.38ZM52.5148 20.24C51.5948 20.24 50.7748 20.0133 50.0548 19.56C49.3348 19.1067 48.7615 18.48 48.3348 17.68C47.9215 16.88 47.7148 15.98 47.7148 14.98C47.7148 13.9533 47.9215 13.0467 48.3348 12.26C48.7615 11.46 49.3415 10.8333 50.0748 10.38C50.8082 9.91333 51.6348 9.68 52.5548 9.68C53.2882 9.68 53.9282 9.82 54.4748 10.1C55.0215 10.3667 55.4615 10.7467 55.7948 11.24L55.9748 9.92H58.4948V20H55.9948L55.7948 18.62C55.4882 19.0467 55.0682 19.4267 54.5348 19.76C54.0148 20.08 53.3415 20.24 52.5148 20.24ZM53.1548 17.88C53.6882 17.88 54.1548 17.76 54.5548 17.52C54.9682 17.2667 55.2882 16.92 55.5148 16.48C55.7415 16.04 55.8548 15.5333 55.8548 14.96C55.8548 14.3867 55.7415 13.88 55.5148 13.44C55.2882 13 54.9682 12.66 54.5548 12.42C54.1548 12.1667 53.6882 12.04 53.1548 12.04C52.6482 12.04 52.1882 12.1667 51.7748 12.42C51.3615 12.66 51.0348 13 50.7948 13.44C50.5682 13.88 50.4548 14.38 50.4548 14.94C50.4548 15.5267 50.5682 16.04 50.7948 16.48C51.0348 16.92 51.3548 17.2667 51.7548 17.52C52.1682 17.76 52.6348 17.88 53.1548 17.88ZM65.0203 20.24C64.007 20.24 63.107 20.0133 62.3203 19.56C61.5336 19.1067 60.9203 18.4867 60.4803 17.7C60.0403 16.9133 59.8203 16.0133 59.8203 15C59.8203 13.96 60.0403 13.0467 60.4803 12.26C60.9203 11.46 61.5336 10.8333 62.3203 10.38C63.107 9.91333 64.007 9.68 65.0203 9.68C66.3136 9.68 67.4003 10.02 68.2803 10.7C69.1603 11.38 69.7203 12.3133 69.9603 13.5H67.1003C66.9803 13.0333 66.727 12.6667 66.3403 12.4C65.967 12.1333 65.5203 12 65.0003 12C64.5336 12 64.1136 12.12 63.7403 12.36C63.3803 12.5867 63.0936 12.9267 62.8803 13.38C62.6803 13.82 62.5803 14.3467 62.5803 14.96C62.5803 15.4267 62.6403 15.8467 62.7603 16.22C62.8803 16.58 63.047 16.8933 63.2603 17.16C63.4736 17.4133 63.727 17.6067 64.0203 17.74C64.327 17.8733 64.6536 17.94 65.0003 17.94C65.347 17.94 65.6603 17.88 65.9403 17.76C66.2336 17.64 66.4803 17.4733 66.6803 17.26C66.8803 17.0333 67.0203 16.76 67.1003 16.44H69.9603C69.7203 17.6 69.1536 18.5267 68.2603 19.22C67.3803 19.9 66.3003 20.24 65.0203 20.24ZM75.7688 20.24C74.8488 20.24 74.0288 20.0133 73.3088 19.56C72.5888 19.1067 72.0154 18.48 71.5888 17.68C71.1754 16.88 70.9688 15.98 70.9688 14.98C70.9688 13.9533 71.1754 13.0467 71.5888 12.26C72.0154 11.46 72.5954 10.8333 73.3288 10.38C74.0621 9.91333 74.8888 9.68 75.8088 9.68C76.5421 9.68 77.1821 9.82 77.7288 10.1C78.2754 10.3667 78.7154 10.7467 79.0488 11.24L79.2288 9.92H81.7488V20H79.2488L79.0488 18.62C78.7421 19.0467 78.3221 19.4267 77.7888 19.76C77.2688 20.08 76.5954 20.24 75.7688 20.24ZM76.4088 17.88C76.9421 17.88 77.4088 17.76 77.8088 17.52C78.2221 17.2667 78.5421 16.92 78.7688 16.48C78.9954 16.04 79.1088 15.5333 79.1088 14.96C79.1088 14.3867 78.9954 13.88 78.7688 13.44C78.5421 13 78.2221 12.66 77.8088 12.42C77.4088 12.1667 76.9421 12.04 76.4088 12.04C75.9021 12.04 75.4421 12.1667 75.0288 12.42C74.6154 12.66 74.2888 13 74.0488 13.44C73.8221 13.88 73.7088 14.38 73.7088 14.94C73.7088 15.5267 73.8221 16.04 74.0488 16.48C74.2888 16.92 74.6088 17.2667 75.0088 17.52C75.4221 17.76 75.8888 17.88 76.4088 17.88ZM83.3942 20V5.6H86.0942V20H83.3942ZM89.0063 24.4L91.4463 18.88H90.8463L86.8063 9.92H89.7463L92.6263 16.42L95.2263 9.92H98.0863L91.8663 24.4H89.0063Z" fill="#EBEBEB" style="fill:#EBEBEB;fill:color(display-p3 0.9216 0.9216 0.9216);fill-opacity:1;"/>
</svg>
